<svg xmlns="http://www.w3.org/2000/svg" viewBox="0 0 64 64" role="img" aria-labelledby="title desc">
  <title id="title">Tokyo Safe First TS mark</title>
  <desc id="desc">A compact blue and green TS symbol with a location pin and safe-route arrow.</desc>
  <defs>
    <linearGradient id="t" x1="8" y1="7" x2="47" y2="42" gradientUnits="userSpaceOnUse">
      <stop stop-color="#0879f9"/>
      <stop offset="1" stop-color="#10b8cc"/>
    </linearGradient>
    <linearGradient id="s" x1="47" y1="24" x2="13" y2="57" gradientUnits="userSpaceOnUse">
      <stop stop-color="#13c6c2"/>
      <stop offset="1" stop-color="#16a979"/>
    </linearGradient>
  </defs>
  <path fill="url(#t)" d="M7 8.5A3.5 3.5 0 0 1 10.5 5h31a3.5 3.5 0 0 1 0 7H30v24a4 4 0 0 1-8 0V12H10.5A3.5 3.5 0 0 1 7 8.5Z"/>
  <path fill="none" stroke="url(#s)" stroke-width="8" stroke-linecap="round" d="M43 25H27c-7 0-11 3.8-11 8.4S20 42 27 42h10c6.5 0 10 3.5 10 8s-3.5 8-10 8H17"/>
  <path fill="#fff" d="m35.5 49 9 5.5-9 5.5v-3.5H22v-4h13.5V49Z"/>
  <path fill="#0879f9" d="M47 6a8 8 0 0 0-8 8c0 5.6 8 14 8 14s8-8.4 8-14a8 8 0 0 0-8-8Zm0 11.2a3.2 3.2 0 1 1 0-6.4 3.2 3.2 0 0 1 0 6.4Z"/>
</svg>
